<?xml version="1.0" standalone="no"?>
<!DOCTYPE svg PUBLIC "-//W3C//DTD SVG 20010904//EN"
 "http://www.w3.org/TR/2001/REC-SVG-20010904/DTD/svg10.dtd">
<svg version="1.0" xmlns="http://www.w3.org/2000/svg"
 width="300.000000pt" height="258.000000pt" viewBox="0 0 300.000000 258.000000"
 preserveAspectRatio="xMidYMid meet">
<metadata>
Created by potrace 1.10, written by Peter Selinger 2001-2011
</metadata>
<g transform="translate(0.000000,258.000000) scale(0.050000,-0.050000)"
fill="#000000" stroke="none">
<path d="M0 4926 c0 -31 72 -88 90 -71 9 8 10 3 1 -11 -9 -16 -1 -37 21 -53
42 -31 88 -19 88 22 0 16 -10 23 -21 16 -12 -7 -42 4 -65 25 -81 70 -114 91
-114 72z"/>
<path d="M1709 4919 c-7 -12 5 -26 28 -32 26 -7 37 -22 30 -44 -9 -28 -8 -29
11 -3 20 27 24 27 42 0 14 -22 19 -23 20 -4 0 14 -27 37 -60 51 -34 14 -55 32
-47 39 8 8 8 14 2 14 -7 0 -19 -10 -26 -21z"/>
<path d="M1540 4810 c-13 -16 -32 -25 -41 -19 -21 13 -9 -55 19 -107 11 -21
15 -44 8 -51 -7 -7 3 -13 23 -13 34 0 34 3 1 53 -28 43 -29 55 -7 69 22 14 21
18 -3 18 -21 1 -16 13 17 41 26 21 39 39 28 39 -11 0 -31 -13 -45 -30z"/>
<path d="M3483 4766 c-16 -29 -24 -30 -52 -7 -27 22 -37 23 -57 1 -19 -20 -18
-23 3 -10 16 9 34 5 43 -10 20 -32 93 -8 93 30 0 39 -7 38 -30 -4z"/>
<path d="M3031 4670 c5 -57 2 -89 -8 -74 -9 14 -30 20 -48 13 -17 -6 -38 -1
-46 13 -11 18 -5 21 22 10 21 -8 31 -8 24 0 -8 8 -5 26 8 41 17 21 14 27 -11
27 -17 0 -32 -10 -32 -22 0 -12 -12 -18 -27 -12 -19 7 -25 -4 -22 -41 7 -56
-28 -103 -67 -90 -14 5 -34 -18 -46 -53 -12 -34 -31 -62 -41 -62 -11 0 -14 -9
-7 -20 17 -28 -17 -25 -46 4 -17 17 -24 18 -24 1 0 -12 9 -28 19 -34 29 -18
13 -137 -25 -191 -19 -27 -34 -38 -34 -24 0 13 -15 24 -33 24 -28 0 -25 -9 15
-53 26 -29 35 -46 20 -37 -22 12 -26 8 -16 -17 10 -25 1 -33 -37 -33 -38 0
-49 -10 -49 -45 1 -36 4 -39 20 -15 16 25 19 23 19 -10 0 -47 -90 -121 -109
-90 -23 38 -50 20 -52 -35 -2 -34 -6 -42 -12 -20 -10 38 -37 46 -55 17 -6 -10
0 -23 14 -28 14 -6 -4 -9 -40 -7 -38 2 -65 14 -65 29 0 14 15 23 34 20 21 -4
38 9 42 31 5 26 0 33 -16 23 -14 -8 -33 -3 -44 12 -15 22 -17 20 -9 -7 13 -37
-16 -49 -37 -15 -7 12 -21 16 -31 9 -10 -6 -14 2 -8 17 6 16 -3 34 -20 41 -37
14 -41 66 -6 80 18 7 18 10 -2 11 -24 2 -24 7 0 35 24 30 22 33 -18 22 -52
-13 -83 19 -36 37 33 13 -40 88 -85 88 -21 0 -72 113 -70 154 1 14 -4 23 -11
21 -7 -2 -47 10 -88 25 l-75 28 55 26 c30 15 41 23 23 18 -17 -4 -44 -1 -59 9
-17 10 -34 8 -42 -6 -11 -17 -25 -15 -51 8 -23 21 -66 30 -121 26 -47 -2 -90
3 -96 13 -19 30 -49 20 -36 -12 6 -16 19 -25 29 -19 10 6 18 2 18 -10 0 -12
-42 -21 -98 -21 -88 0 -97 4 -88 40 6 22 19 35 29 28 10 -6 13 -19 6 -29 -6
-10 10 -17 37 -15 35 3 46 14 39 40 -5 20 -18 31 -28 24 -10 -6 -11 -21 -4
-34 8 -13 -4 -8 -26 11 -37 32 -41 32 -75 0 -35 -34 -36 -33 -12 12 13 26 15
42 4 35 -12 -7 -35 2 -52 19 -29 29 -32 29 -32 0 0 -17 14 -31 32 -31 19 0 28
-11 22 -28 -6 -15 0 -38 13 -52 18 -19 13 -22 -21 -11 -36 11 -47 4 -57 -37
-9 -33 -22 -46 -43 -38 -27 10 -26 14 2 30 35 20 26 56 -14 56 -14 0 -12 -8 6
-20 24 -16 22 -19 -13 -20 -33 0 -41 -9 -33 -40 8 -31 3 -38 -21 -28 -18 7
-27 22 -20 33 8 13 3 15 -11 6 -16 -9 -29 0 -35 26 -7 24 -22 36 -39 29 -15
-5 -28 1 -28 15 0 14 -5 21 -10 15 -19 -18 13 -76 41 -76 14 0 46 -27 69 -60
36 -51 38 -60 10 -60 -18 0 -27 -9 -20 -20 7 -12 -2 -14 -22 -6 -24 9 -30 5
-20 -11 8 -12 4 -23 -8 -23 -12 0 -18 -8 -12 -17 6 -10 -14 -13 -44 -9 -42 7
-47 5 -24 -12 25 -18 23 -21 -13 -22 -24 0 -60 -6 -79 -13 -25 -10 -32 -6 -24
15 6 16 -6 50 -26 76 -21 25 -38 38 -38 28 0 -10 11 -29 24 -42 17 -17 18 -24
1 -24 -12 0 -38 27 -58 59 -19 32 -40 55 -46 51 -7 -4 -30 19 -52 52 -21 32
-50 54 -63 49 -14 -5 -32 2 -40 15 -9 13 -38 41 -66 62 -27 21 48 -59 168
-177 147 -145 223 -206 233 -190 23 38 79 6 77 -45 0 -25 -6 -35 -11 -21 -6
14 -20 25 -32 25 -13 0 3 -27 34 -59 l56 -59 -52 -13 c-29 -7 -47 -22 -40 -33
12 -21 -27 -55 -63 -55 -11 0 -6 8 10 19 17 11 21 20 9 20 -12 0 -33 -11 -48
-25 -22 -20 -25 -18 -14 11 7 20 5 31 -5 25 -23 -14 -41 -111 -21 -111 9 0 19
7 24 15 5 8 6 5 3 -8 -3 -12 5 -32 18 -45 16 -16 16 -22 -2 -22 -13 0 -24 11
-24 23 0 13 -6 18 -13 10 -8 -7 -30 2 -50 20 -33 30 -37 30 -37 2 0 -18 11
-36 25 -41 20 -7 20 -14 0 -35 -14 -15 -25 -36 -25 -47 0 -11 12 -4 26 16 24
32 29 33 53 4 22 -27 20 -32 -12 -34 -22 -1 -27 -5 -11 -11 14 -6 40 1 59 16
19 16 27 17 19 3 -9 -14 2 -28 26 -36 22 -7 35 -21 29 -31 -6 -11 -1 -19 11
-19 12 0 38 38 58 85 20 47 84 200 143 341 150 356 126 338 453 331 l270 -7
55 -65 c29 -36 118 -188 196 -339 l141 -273 227 5 c125 3 232 11 239 18 11 14
215 561 250 672 38 120 405 198 638 135 103 -28 121 -27 114 8 -3 16 3 29 13
29 22 0 20 -37 -3 -74 -8 -13 -6 -29 6 -36 11 -7 20 -28 20 -46 1 -19 66 -178
147 -354 l146 -320 230 -6 231 -5 43 145 c24 80 43 161 43 180 0 55 165 102
658 188 l208 36 32 -49 c37 -56 319 -441 342 -466 33 -35 280 8 280 49 0 21
-11 38 -25 38 -14 0 -43 22 -65 48 -37 44 -43 45 -75 17 -22 -20 -35 -23 -35
-8 0 13 10 23 23 23 30 0 9 22 -26 27 -54 9 -137 79 -137 115 0 21 -11 38 -26
38 -40 0 -93 73 -70 96 13 13 12 24 -2 33 -12 7 -22 8 -22 1 0 -6 -18 -2 -40
10 -22 12 -40 37 -39 56 0 30 4 30 30 -5 24 -32 33 -34 54 -12 17 19 18 23 1
14 -13 -8 -31 -2 -40 14 -9 15 -47 33 -86 40 -162 29 -289 24 -267 -12 12 -20
8 -20 -16 0 -17 13 -37 18 -46 10 -8 -8 -13 -6 -10 5 9 48 -4 48 -52 1 -28
-28 -57 -51 -64 -51 -7 0 -2 11 11 24 31 31 31 76 1 76 -13 0 -18 -5 -12 -12
21 -20 -52 -88 -94 -87 -39 0 -39 2 -5 28 23 17 29 32 15 40 -11 7 -21 4 -21
-8 0 -11 -13 -21 -30 -21 -16 0 -30 -12 -30 -27 0 -14 -11 -27 -25 -27 -14 -1
-42 -8 -63 -17 -28 -11 -35 -8 -27 13 5 15 19 26 31 24 11 -3 25 8 31 25 7 18
0 29 -19 29 -18 0 -25 10 -17 25 7 14 -5 3 -27 -24 -22 -27 -35 -61 -29 -77 8
-21 0 -25 -31 -15 -27 8 -56 1 -82 -23 -71 -65 -98 -84 -107 -75 -4 5 -8 -4
-8 -21 0 -16 9 -30 21 -31 12 0 6 -10 -14 -21 -26 -15 -44 -14 -65 2 -23 20
-27 12 -25 -51 2 -49 -9 -83 -31 -99 -37 -27 -46 -60 -10 -38 13 8 19 3 13
-13 -4 -14 -26 -36 -47 -48 -48 -26 -69 -54 -57 -75 6 -8 -4 -10 -21 -4 -17 7
-25 21 -19 31 18 29 -53 73 -97 62 -28 -8 -36 -1 -32 25 5 25 -7 37 -38 40
-25 2 -52 11 -60 20 -8 9 1 11 20 4 48 -17 44 20 -5 51 -22 13 -40 32 -40 41
0 9 8 11 18 5 10 -6 23 2 29 18 6 17 3 35 -8 42 -10 6 -19 29 -19 50 0 22 -10
39 -21 39 -12 0 -17 -19 -11 -45 7 -25 6 -34 0 -20 -6 14 -23 25 -38 25 -14 0
-31 14 -38 32 -18 48 -15 55 15 31 37 -31 59 -4 28 34 -16 20 -17 26 -2 17 13
-8 28 1 35 19 11 28 7 28 -40 -3 -57 -37 -87 -19 -88 55 0 19 -9 35 -20 35
-11 0 -20 16 -20 36 0 20 -17 55 -39 78 -21 23 -34 47 -27 53 21 21 -95 37
-119 17 -19 -15 -26 -8 -28 28 -3 49 43 68 58 24 5 -15 13 -11 21 11 11 29 2
34 -62 30 -42 -2 -86 2 -99 10 -12 7 -27 5 -34 -5 -6 -11 0 -23 14 -28 14 -4
3 -4 -25 0 -27 5 -53 17 -57 27 -9 26 -63 24 -63 -1 0 -12 -15 -11 -39 4 -21
13 -34 31 -29 39 5 8 -2 21 -15 29 -14 9 -18 6 -9 -9 8 -13 4 -23 -8 -23 -12
0 -17 -9 -10 -20 7 -11 5 -21 -4 -21 -9 -1 -36 -6 -61 -10 -25 -5 -45 0 -45
11 0 11 14 20 31 20 17 0 25 10 18 21 -7 12 -25 17 -40 11 -14 -5 -31 1 -36
14 -5 13 -6 -21 -2 -76z"/>
<path d="M239 4673 c38 -40 77 -73 86 -73 10 0 4 14 -14 32 -17 17 -25 42 -18
55 7 12 6 16 -3 8 -9 -8 -40 0 -68 18 -43 26 -40 19 17 -40z"/>
<path d="M1660 4679 c0 -10 9 -19 20 -19 11 0 20 -13 20 -30 0 -16 9 -30 20
-30 11 0 20 10 20 21 0 12 10 15 23 7 15 -9 18 -5 9 9 -8 13 -23 18 -33 12
-11 -6 -19 -3 -19 8 0 10 -13 24 -30 30 -16 7 -30 3 -30 -8z"/>
<path d="M3230 4515 c76 -43 8 -187 -95 -201 -36 -5 18 -7 120 -3 198 6 330
50 341 113 8 39 -101 103 -152 90 -31 -8 -31 -10 -1 -12 90 -6 51 -122 -52
-154 -93 -29 -111 -16 -111 82 0 84 3 88 65 96 36 4 18 7 -40 7 -67 -1 -94 -8
-75 -18z"/>
<path d="M3 3798 c-5 -102 -1 -116 27 -105 19 7 26 18 16 25 -10 7 -16 26 -15
42 2 17 4 53 6 80 3 36 8 43 21 23 10 -16 22 -19 29 -8 6 11 -8 28 -33 40 -43
19 -45 16 -51 -97z"/>
<path d="M495 3828 c-7 -7 -7 -26 0 -43 8 -21 4 -27 -12 -17 -39 24 -103 31
-103 11 0 -11 -13 -19 -30 -19 -16 0 -30 9 -30 20 0 11 -9 20 -20 20 -11 0
-20 -13 -20 -30 0 -19 -19 -30 -50 -30 -50 0 -72 -31 -25 -36 14 -2 54 -9 90
-16 52 -10 65 -6 65 20 0 17 10 32 21 32 12 0 15 -11 7 -25 -8 -14 5 -8 29 13
28 25 43 29 43 13 0 -15 13 -20 31 -13 18 6 26 3 19 -8 -7 -11 -4 -20 7 -20
11 0 24 11 30 25 8 20 10 20 11 0 1 -14 12 -25 23 -25 13 0 16 17 9 40 -8 24
-4 40 10 40 14 0 11 12 -7 30 -31 31 -77 39 -98 18z"/>
<path d="M5791 3685 c20 -30 75 -108 123 -172 l86 -117 0 122 0 122 -85 0
c-49 0 -74 7 -60 16 18 12 14 25 -16 50 -61 53 -88 41 -48 -21z"/>
<path d="M3979 3652 c11 -27 41 -93 67 -146 154 -307 -2 -495 -524 -634 -267
-72 -385 -81 -561 -44 -137 29 -231 71 -160 72 16 1 -24 23 -89 49 -260 107
-330 247 -234 466 84 191 87 185 -97 185 -141 0 -162 5 -192 45 -29 39 -32 40
-19 5 80 -212 -78 -288 -633 -305 -513 -15 -755 54 -730 208 11 67 -13 93 -34
37 -10 -25 -72 -30 -392 -30 l-381 0 0 -59 0 -59 117 11 c92 9 129 4 171 -23
43 -29 51 -29 41 -5 -6 17 2 35 21 42 18 7 27 4 21 -6 -6 -9 -1 -21 12 -25 17
-6 16 -21 -3 -57 -21 -41 -20 -45 2 -24 50 47 59 25 14 -36 -26 -35 -56 -56
-73 -49 -42 16 -89 -29 -63 -60 15 -18 12 -29 -9 -37 -17 -6 -31 -26 -31 -42
0 -17 -13 -31 -28 -31 -15 0 -33 -20 -39 -45 -6 -25 -30 -65 -52 -90 -23 -24
-41 -53 -41 -64 0 -12 -12 -21 -27 -21 -19 0 -28 -37 -31 -135 -2 -74 -1 -130
4 -125 5 6 79 113 164 240 179 263 267 351 380 380 44 11 131 35 194 53 106
30 247 27 302 -6 10 -7 160 -16 332 -20 557 -13 594 -16 632 -54 43 -43 221
-134 238 -122 6 5 8 4 4 -3 -5 -6 12 -42 38 -80 75 -110 79 -170 21 -274 -28
-51 -51 -105 -51 -122 0 -16 -16 -39 -35 -50 -21 -13 -25 -21 -9 -21 41 -1 6
-141 -49 -192 -26 -24 -47 -51 -47 -59 0 -9 19 1 42 22 l43 38 -33 -79 c-51
-122 -66 -123 -85 -7 -9 57 -1 80 43 128 63 68 98 128 75 128 -9 0 -33 -31
-54 -70 -20 -38 -44 -70 -52 -70 -30 0 -36 58 -8 81 16 13 29 37 29 52 0 16
16 52 35 82 19 29 25 47 12 40 -12 -8 -38 -48 -58 -89 -31 -66 -37 -70 -49
-36 -8 22 -7 45 3 51 25 17 40 179 16 179 -10 0 -20 -11 -21 -25 -1 -14 -5
-47 -10 -75 -5 -27 -11 -131 -13 -230 -4 -126 -16 -199 -40 -244 -49 -91 -43
-106 14 -36 47 57 50 58 50 15 2 -83 -47 -206 -76 -195 -20 8 -25 -3 -18 -40
5 -27 2 -50 -6 -50 -16 0 -37 48 -40 90 -1 11 -14 27 -30 36 -15 8 -22 29 -15
48 9 23 5 28 -12 17 -15 -9 -20 -32 -12 -58 46 -150 11 -381 -52 -342 -10 6
-13 -1 -7 -16 6 -15 -12 -61 -40 -102 -28 -41 -51 -84 -51 -96 0 -12 -12 -16
-28 -11 -19 8 -24 0 -17 -27 6 -24 -3 -43 -23 -51 -17 -7 -26 -22 -18 -35 8
-13 -1 -11 -19 3 -29 24 -34 19 -46 -42 -13 -73 -109 -146 -109 -84 0 17 -13
30 -30 30 -16 0 -30 -9 -30 -20 0 -11 7 -20 16 -20 18 0 17 -94 -2 -113 -8 -7
-30 0 -49 17 -19 17 -56 28 -83 23 -26 -4 -60 3 -77 17 -23 19 -33 18 -47 -9
-12 -21 -36 -29 -68 -23 -59 10 -62 3 -16 -43 32 -32 30 -34 -37 -26 -69 8
-129 -24 -101 -54 8 -8 1 -10 -16 -4 -16 5 -28 21 -25 34 4 13 -3 18 -15 11
-12 -7 -19 -27 -16 -45 4 -20 -12 -37 -43 -44 -54 -14 -81 -61 -33 -61 19 0
26 -11 19 -30 -6 -17 -6 -30 1 -30 7 0 21 22 32 49 25 67 200 119 410 122 206
3 210 4 210 35 0 15 56 85 125 156 69 71 143 162 165 203 21 41 46 75 54 75 8
0 10 13 3 30 -6 16 -2 30 9 30 19 0 104 154 104 187 0 9 28 44 61 79 69 72
169 253 223 404 35 99 64 167 98 235 10 19 18 74 18 123 0 182 129 412 231
412 105 0 109 -15 36 -154 l-68 -131 3 -373 c4 -430 10 -412 -238 -789 -144
-218 -590 -679 -705 -728 -32 -14 -59 -37 -59 -51 0 -15 -38 -73 -85 -129 -47
-57 -100 -124 -118 -149 -37 -52 -122 -6 -115 63 7 74 -9 84 -20 13 -20 -126
-93 -159 -134 -60 -27 64 -35 71 -51 42 -61 -109 -159 58 -110 187 19 52 30
58 76 48 51 -11 143 72 114 101 -32 31 -212 -18 -213 -58 0 -59 -13 -108 -33
-126 -10 -9 -11 -5 -3 9 9 15 3 25 -14 25 -20 0 -26 17 -21 55 6 47 5 49 -11
15 -33 -70 -24 -129 28 -174 67 -58 68 -136 1 -136 -56 0 -87 -35 -46 -51 18
-7 25 -31 20 -67 -6 -39 1 -60 23 -69 18 -7 32 -1 32 13 0 15 8 13 20 -6 14
-22 19 -23 20 -4 0 15 9 21 20 14 10 -6 37 -2 60 10 22 12 40 13 40 4 0 -10
25 -19 55 -19 205 -3 255 -15 250 -60 -2 -25 6 -45 19 -45 12 0 17 5 11 12 -7
7 -4 23 7 35 11 13 31 40 46 61 24 35 26 33 28 -25 1 -35 -6 -59 -16 -53 -9 6
-23 2 -29 -8 -19 -30 16 -41 49 -15 51 41 75 101 59 146 -22 60 264 198 288
140 6 -13 11 -6 11 14 2 30 -8 35 -43 25 -305 -83 -320 -32 -62 213 119 113
263 253 322 311 60 60 115 100 128 92 29 -18 9 -215 -33 -314 -36 -87 -5 -101
39 -16 37 71 68 206 78 336 9 125 228 586 279 586 21 0 -2 -331 -34 -487 -18
-86 -32 -189 -32 -230 0 -164 -116 -562 -187 -640 -24 -25 -40 -66 -37 -91 3
-26 -15 -67 -46 -100 -63 -68 -76 -61 -51 25 11 39 11 59 0 52 -11 -6 -19 -24
-19 -39 0 -43 -101 -151 -135 -145 -17 3 -35 -6 -40 -20 -6 -18 24 -25 110
-25 l118 0 47 105 c95 211 291 423 354 383 25 -15 107 -143 161 -248 47 -93
123 -183 179 -213 85 -47 96 -29 49 76 -22 48 -45 114 -52 147 l-12 60 42 -65
c24 -36 51 -65 61 -65 9 0 31 -31 47 -70 18 -44 43 -70 66 -70 20 0 48 -11 62
-25 19 -19 19 -11 2 40 -13 36 -31 70 -41 76 -10 6 -18 31 -17 55 0 42 2 42
28 8 20 -27 29 -29 36 -10 15 41 50 -5 62 -79 5 -36 1 -65 -10 -65 -71 0 21
-34 102 -37 137 -7 128 16 -69 166 -32 24 -35 34 -13 48 85 56 -64 142 -173
101 -159 -61 -510 108 -473 226 9 27 1 36 -30 36 -62 0 -98 89 -54 136 18 21
33 55 33 77 0 64 45 102 136 113 101 12 144 43 144 101 0 24 18 69 39 102 39
58 39 58 -5 80 -109 54 -46 201 109 252 56 18 96 50 127 98 60 96 99 125 155
118 28 -4 87 20 144 58 112 74 161 80 230 26 34 -26 69 -34 115 -27 40 7 82 0
111 -19 31 -20 60 -24 91 -12 46 16 144 -57 144 -108 0 -10 50 -75 110 -144
81 -93 110 -141 110 -186 0 -33 14 -72 32 -87 23 -19 29 -46 21 -95 -8 -49 -1
-84 26 -121 73 -103 92 -318 33 -377 -12 -11 203 -161 310 -216 62 -32 200
-173 270 -276 55 -81 208 -112 208 -42 0 17 11 29 25 28 60 -8 90 3 88 34 -2
22 34 46 117 76 66 24 156 63 200 85 80 41 312 106 376 106 27 0 34 19 34 92
0 93 0 93 -60 81 -49 -10 -66 -3 -91 36 -18 27 -44 44 -59 38 -32 -12 -123 72
-97 90 25 19 21 127 -7 173 -17 28 -25 31 -25 11 -1 -18 -29 -1 -73 45 -64 66
-102 84 -153 76 -8 -1 -15 7 -15 18 0 11 -13 20 -30 20 -16 0 -30 -8 -30 -18
0 -17 -32 -10 -145 30 -43 15 -46 48 -5 48 17 0 30 10 30 22 0 12 -13 17 -30
11 -17 -7 -30 -1 -30 14 0 17 31 25 99 23 64 -2 94 5 86 19 -7 11 3 9 21 -6
23 -19 35 -20 37 -5 6 56 8 62 17 57 18 -9 76 54 66 71 -5 9 6 39 24 67 26 39
29 63 14 104 -11 29 -16 98 -11 153 5 55 11 132 13 170 2 39 12 82 22 97 10
16 9 33 -2 40 -25 18 -23 110 3 128 13 9 11 14 -6 15 -18 0 -24 14 -17 40 6
22 2 35 -8 29 -10 -6 -18 21 -18 60 0 39 9 71 20 71 12 0 15 22 7 53 -7 30 -5
48 5 42 10 -6 18 64 18 160 0 120 -8 174 -25 180 -14 5 -21 15 -16 23 18 29
-25 64 -89 72 -71 9 -108 30 -53 30 18 0 49 18 68 40 19 22 59 40 89 40 31 0
56 10 56 21 0 12 16 17 35 11 19 -6 68 -3 108 6 49 11 82 10 98 -5 18 -17 26
-17 33 2 5 14 29 25 53 25 31 -1 36 -5 16 -18 -22 -14 7 -42 45 -42 36 0 4
144 -37 163 -57 26 -51 58 9 43 31 -8 40 -1 40 32 0 41 -3 42 -57 14 -81 -42
-631 -129 -1033 -164 -336 -29 -516 -165 -559 -423 -16 -93 -50 -115 -53 -35
-2 28 -5 57 -7 65 -44 164 -23 292 50 302 27 3 58 15 68 25 10 10 48 18 84 18
35 0 70 9 77 20 11 17 -272 34 -365 21 -45 -5 -34 46 105 474 l47 145 -178 0
c-143 0 -179 6 -179 29 0 16 -9 34 -20 41 -13 8 -13 -5 -1 -38z m-1637 -254
c-5 -16 -10 -61 -10 -102 -2 -87 -77 -184 -99 -128 -7 20 -1 32 16 32 17 0 24
14 17 40 -6 22 -2 40 9 40 12 0 20 11 20 25 -4 90 7 137 30 129 14 -5 21 -21
17 -36z m-118 -98 c8 -50 0 -65 -43 -87 -63 -31 -67 73 -5 122 41 32 38 34 48
-35z m1877 -411 c82 -74 138 -220 168 -438 52 -366 117 -605 152 -550 14 21
18 13 19 -32 0 -40 27 -99 75 -164 41 -56 84 -115 95 -131 11 -17 52 -36 90
-42 39 -6 59 -6 45 0 -14 6 -25 44 -25 85 -1 47 -7 64 -17 46 -12 -19 -21 -9
-29 32 -16 82 4 150 40 136 16 -6 68 -11 114 -11 101 0 140 -78 118 -235 l-11
-85 180 0 180 0 14 209 c17 248 15 254 -98 238 -82 -11 -87 -9 -87 36 0 26 -7
85 -15 130 l-14 84 78 21 c42 12 87 22 100 22 18 0 72 297 57 316 -2 3 -30 -5
-62 -17 -38 -14 -59 -15 -64 -1 -10 29 -64 3 -64 -32 0 -24 -19 -27 -98 -16
-62 8 -103 5 -111 -8 -7 -12 -22 -22 -32 -22 -25 0 -24 74 1 90 11 7 20 20 20
29 0 23 -78 41 -91 20 -6 -10 -30 -11 -55 -3 -143 46 -251 -20 -303 -185 -19
-62 -30 -118 -24 -125 10 -10 22 14 65 133 9 26 12 26 29 0 12 -19 18 -21 19
-4 0 14 22 25 49 25 38 0 47 -8 38 -35 -6 -19 9 -3 34 35 27 42 49 60 54 44 5
-14 -3 -40 -18 -58 -23 -28 -22 -30 13 -20 117 33 170 36 170 11 0 -15 -20
-28 -45 -28 -103 -4 -185 -29 -214 -66 -17 -22 -53 -43 -81 -46 -36 -5 -52
-21 -57 -57 l-7 -50 45 50 45 50 -15 -60 c-23 -98 -151 -128 -151 -36 0 25 -6
28 -22 12 -16 -16 -16 -50 -1 -119 11 -53 17 -100 13 -104 -10 -10 -50 139
-50 187 0 59 121 436 150 467 59 63 945 130 921 69 -40 -102 -55 -307 -58
-810 -3 -305 -10 -560 -17 -567 -13 -13 -599 28 -614 43 -4 4 10 23 31 42 21
20 29 29 18 21 -38 -30 -91 -16 -91 25 0 22 -13 40 -28 40 -16 0 -33 11 -38
25 -5 14 -8 1 -6 -28 1 -29 8 -49 15 -45 8 5 20 -20 28 -54 9 -42 19 -55 29
-38 11 18 19 14 29 -15 7 -23 79 -133 159 -244 l147 -203 234 -6 c255 -6 308
-27 281 -111 -12 -39 -23 -42 -92 -31 -73 13 -78 11 -78 -36 0 -108 202 -225
226 -132 15 55 68 46 82 -13 16 -64 -2 -95 -48 -83 -28 7 -39 -6 -48 -53 -18
-91 -170 -173 -200 -108 -10 20 -14 20 -24 0 -6 -14 -36 -25 -66 -25 -64 0
-153 83 -132 124 7 14 -4 4 -26 -22 -58 -71 -191 55 -265 252 -10 25 -34 46
-54 46 -39 0 -127 86 -256 250 -43 55 -100 123 -126 150 -26 28 -76 111 -112
185 -35 75 -71 129 -80 120 -10 -8 -12 -5 -4 8 7 12 -29 73 -79 134 -144 175
-191 350 -189 699 2 302 -4 325 -156 563 -35 54 -63 105 -63 113 0 52 282 41
341 -13z m-371 -289 c1 -16 -17 -36 -40 -43 -34 -11 -32 -13 14 -15 56 -2 94
-37 64 -59 -24 -17 -34 -69 -11 -55 10 6 23 -6 29 -28 6 -22 3 -35 -7 -30 -17
11 -14 -68 4 -101 6 -10 12 -89 12 -175 1 -86 6 -162 13 -168 19 -19 -8 -45
-35 -34 -20 7 -32 98 -13 98 2 0 6 17 10 37 4 20 1 31 -7 23 -7 -7 -13 -24
-14 -37 0 -12 -13 -20 -28 -17 -23 5 -23 0 1 -28 26 -32 24 -33 -18 -10 -27
14 -39 34 -31 48 11 18 6 17 -16 -1 -17 -13 -37 -19 -44 -11 -7 7 -13 -7 -13
-32 0 -24 7 -40 15 -36 8 5 33 2 55 -7 36 -15 35 -16 -11 -18 -28 0 -62 10
-75 23 -32 32 -263 38 -258 8 2 -12 -14 -19 -36 -15 -40 6 -40 6 0 -25 45 -34
25 -42 -87 -33 -26 3 -68 -15 -93 -39 -25 -24 -63 -41 -83 -39 -66 7 -90 -1
-76 -23 10 -16 19 -14 31 5 13 20 17 21 18 2 0 -14 -22 -36 -50 -49 -27 -12
-50 -30 -50 -39 0 -9 -13 -17 -29 -17 -16 0 -35 -10 -42 -22 -10 -15 1 -18 33
-8 39 11 35 4 -21 -38 -79 -60 -90 -63 -74 -23 18 47 -16 53 -44 8 -14 -23
-17 -36 -7 -29 11 6 25 -1 31 -16 11 -31 -26 -52 -89 -52 -41 0 -52 32 -15 44
13 5 26 23 28 42 3 19 -3 29 -13 23 -17 -11 -11 242 12 466 7 75 4 105 -14
105 -19 0 -19 5 0 24 13 13 24 40 24 59 0 19 16 44 35 55 32 19 32 21 -5 23
-22 1 -29 7 -15 12 19 8 18 17 -4 39 -25 24 -25 36 0 83 17 33 21 58 9 62 -27
9 -26 83 1 83 12 0 15 11 6 25 -27 43 -24 73 5 62 15 -6 23 -19 17 -29 -6 -10
-2 -18 10 -18 11 0 21 10 21 23 0 13 6 18 13 11 7 -8 25 -4 38 7 17 14 30 14
38 1 7 -11 24 -16 38 -10 15 5 37 -3 51 -19 16 -20 49 -26 103 -20 49 5 79 1
79 -13 0 -14 12 -15 36 -2 20 11 63 19 95 18 33 0 98 10 146 23 48 13 122 24
165 25 43 0 78 9 78 18 0 10 20 -2 45 -27 25 -25 45 -58 45 -75z m1268 -332
c-26 -32 -65 -16 -51 22 5 14 -1 36 -14 50 -12 14 2 9 32 -10 44 -27 51 -41
33 -62z m-198 -79 c14 17 49 31 79 31 57 0 58 -3 44 -141 -6 -59 -120 -170
-147 -143 -13 13 -16 24 -7 24 9 0 -14 21 -51 46 -50 34 -69 61 -70 105 -3 76
48 118 94 77 28 -25 35 -25 58 1z m241 -339 c1 -33 6 -99 11 -147 21 -183 -48
-28 -82 183 -12 72 -10 75 29 50 26 -16 41 -48 42 -86z m259 -51 c0 -11 -22
-19 -50 -19 -57 0 -68 33 -15 45 41 9 65 0 65 -26z"/>
<path d="M5016 2615 c35 -35 52 -40 78 -23 67 42 52 68 -37 68 l-86 0 45 -45z"/>
<path d="M4856 1651 c-8 -66 -10 -124 -5 -129 22 -22 31 22 25 131 l-6 117
-14 -119z"/>
<path d="M3210 1933 c-11 -25 -20 -29 -30 -13 -10 16 -19 17 -28 4 -13 -22 63
-56 81 -37 6 5 7 26 2 46 -9 36 -9 36 -25 0z"/>
<path d="M1240 3218 c0 -8 11 -20 25 -26 19 -9 18 -15 -5 -25 -21 -10 -9 -21
40 -38 44 -15 83 -17 105 -6 22 12 36 11 38 -2 1 -12 4 -30 7 -41 3 -11 6 -27
8 -34 1 -8 28 14 60 49 32 35 82 69 110 76 29 8 57 21 63 31 14 22 16 22 -105
-1 -70 -13 -136 -11 -223 7 -67 14 -123 18 -123 10z"/>
<path d="M1780 3188 c-18 -29 -41 -38 -87 -32 -49 5 -69 -4 -91 -40 -24 -40
-24 -43 0 -23 15 12 58 20 95 17 53 -4 70 3 78 32 11 43 37 50 51 13 5 -14 14
-20 21 -14 7 7 0 29 -15 49 -26 36 -28 36 -52 -2z"/>
<path d="M2063 2955 c-2 -58 6 -95 19 -95 12 0 17 14 11 30 -7 17 -1 30 13 30
18 1 18 5 1 15 -13 8 -27 38 -32 65 -6 29 -11 11 -12 -45z"/>
<path d="M1702 2868 c24 -29 83 -23 94 9 5 16 -14 22 -53 19 -45 -3 -56 -11
-41 -28z"/>
<path d="M5594 2546 c-8 -12 16 -49 53 -81 37 -33 73 -72 80 -87 7 -15 8 -1 2
32 -13 66 -65 135 -90 119 -9 -5 -19 2 -24 15 -5 17 -12 18 -21 2z"/>
<path d="M1770 2410 c6 -44 15 -108 19 -142 3 -34 16 -80 28 -102 12 -23 16
-46 9 -53 -7 -7 -1 -13 13 -13 34 0 14 139 -41 284 -39 102 -40 103 -28 26z"/>
<path d="M1 2133 c2 -252 7 -291 31 -271 22 18 23 30 6 51 -27 32 -9 235 28
332 31 79 29 93 -18 137 l-50 46 3 -295z"/>
<path d="M1046 2272 c-12 -39 -14 -79 -4 -95 10 -15 18 -18 18 -7 1 11 6 54
12 95 14 93 1 97 -26 7z"/>
<path d="M453 2165 c-100 -157 -164 -342 -189 -545 -12 -93 -36 -260 -54 -370
-39 -237 -33 -455 13 -502 29 -29 33 -23 46 62 8 51 28 131 46 177 17 46 38
142 45 213 8 72 34 220 58 330 78 360 102 499 102 583 0 55 10 87 30 94 37 15
40 73 3 73 -15 0 -60 -52 -100 -115z"/>
<path d="M5966 2008 c-2 -48 4 -88 15 -88 22 0 26 153 4 167 -8 5 -17 -31 -19
-79z"/>
<path d="M999 1895 c-3 -8 -16 -95 -29 -185 -8 -51 -5 -73 7 -60 18 19 46 250
30 250 -4 0 -8 -2 -8 -5z"/>
<path d="M2860 1250 c0 -53 13 -60 58 -32 34 22 14 82 -27 82 -20 0 -31 -18
-31 -50z"/>
<path d="M2940 738 c0 -22 109 -36 129 -16 20 19 16 21 -74 27 -30 1 -55 -3
-55 -11z"/>
<path d="M0 409 c0 -317 27 -463 67 -364 6 16 10 14 11 -6 3 -56 140 -49 203
12 39 37 86 56 168 67 275 38 338 340 91 442 -201 83 -393 -176 -257 -349 51
-65 25 -97 -68 -85 -30 4 -55 0 -55 -9 0 -36 -54 -15 -75 28 -58 124 -69 174
-49 233 11 32 15 64 8 71 -7 7 0 21 15 31 22 13 23 23 4 46 -13 16 -25 71 -28
121 -10 231 -35 60 -35 -238z m548 -33 c21 -60 -26 -136 -85 -136 -39 0 -103
58 -103 94 0 115 151 148 188 42z"/>
<path d="M2625 715 c-92 -22 -102 -42 -54 -111 17 -24 24 -44 15 -45 -45 -2
87 -79 135 -79 32 0 78 -9 103 -21 55 -25 259 0 270 34 8 24 -120 52 -130 27
-3 -8 -27 -10 -54 -5 -49 10 -83 68 -60 105 7 11 2 20 -10 20 -12 0 -17 9 -9
21 40 65 -55 90 -206 54z"/>
<path d="M1979 455 c-2 -146 -38 -243 -94 -251 -62 -9 -55 -94 8 -100 40 -3
51 14 86 133 43 145 55 323 21 323 -11 0 -21 -47 -21 -105z"/>
<path d="M1876 513 c-14 -14 -38 -22 -51 -18 -27 9 -33 -31 -13 -83 7 -18 21
-26 32 -19 11 6 10 -8 -3 -31 -13 -24 -30 -39 -38 -34 -8 5 -15 -13 -15 -39 0
-54 27 -62 76 -24 19 16 36 72 43 150 13 133 11 140 -31 98z"/>
<path d="M4131 466 c-5 -14 0 -30 11 -37 11 -7 30 -37 42 -66 l21 -53 18 66
c10 36 32 71 48 77 54 21 30 39 -51 38 -44 -1 -84 -12 -89 -25z"/>
<path d="M4093 186 c-25 -7 -33 -22 -27 -48 7 -25 0 -38 -19 -38 -16 0 -49
-11 -73 -24 -24 -13 -53 -26 -64 -29 -134 -33 -136 -44 -9 -45 119 -2 137 3
186 55 50 52 88 146 57 141 -8 -2 -31 -7 -51 -12z"/>
<path d="M5822 91 c18 -18 178 -46 178 -31 0 8 -28 21 -62 28 -73 14 -128 16
-116 3z"/>
</g>
</svg>
